<svg width="19" height="20" viewBox="0 0 19 20" fill="none" xmlns="http://www.w3.org/2000/svg">
<path d="M9.4105 0.653809C6.8757 0.653809 6.55758 0.664892 5.56202 0.710198C4.5684 0.755699 3.89017 0.913006 3.29672 1.14381C2.68285 1.38221 2.16212 1.7011 1.64334 2.22007C1.12417 2.73886 0.805274 3.25959 0.566104 3.87326C0.334713 4.4669 0.177212 5.14533 0.132489 6.13856C0.0879606 7.13413 0.0762939 7.45243 0.0762939 9.98724C0.0762939 12.522 0.087572 12.8392 0.132684 13.8348C0.178379 14.8284 0.335686 15.5066 0.566299 16.1001C0.804885 16.7139 1.12378 17.2346 1.64275 17.7534C2.16134 18.2726 2.68207 18.5923 3.29555 18.8307C3.88939 19.0615 4.56781 19.2188 5.56124 19.2643C6.55681 19.3096 6.87473 19.3207 9.40934 19.3207C11.9443 19.3207 12.2615 19.3096 13.257 19.2643C14.2507 19.2188 14.9297 19.0615 15.5235 18.8307C16.1372 18.5923 16.6571 18.2726 17.1757 17.7534C17.6949 17.2346 18.0138 16.7139 18.253 16.1002C18.4824 15.5066 18.6399 14.8282 18.6866 13.8349C18.7313 12.8394 18.743 12.522 18.743 9.98724C18.743 7.45243 18.7313 7.13432 18.6866 6.13875C18.6399 5.14513 18.4824 4.4669 18.253 3.87345C18.0138 3.25959 17.6949 2.73886 17.1757 2.22007C16.6565 1.7009 16.1374 1.38201 15.5229 1.14381C14.9279 0.913006 14.2493 0.755699 13.2557 0.710198C12.2601 0.664892 11.9432 0.653809 9.40758 0.653809H9.4105ZM8.57322 2.33577C8.82172 2.33538 9.099 2.33577 9.4105 2.33577C11.9025 2.33577 12.1979 2.34471 13.182 2.38944C14.092 2.43105 14.5859 2.58311 14.9149 2.71086C15.3505 2.88003 15.661 3.08225 15.9875 3.40892C16.3141 3.73559 16.5164 4.0467 16.6859 4.48226C16.8137 4.81088 16.9659 5.30477 17.0073 6.21478C17.0521 7.19868 17.0618 7.49424 17.0618 9.9851C17.0618 12.476 17.0521 12.7715 17.0073 13.7554C16.9657 14.6654 16.8137 15.1593 16.6859 15.4879C16.5167 15.9235 16.3141 16.2336 15.9875 16.5601C15.6608 16.8868 15.3506 17.089 14.9149 17.2582C14.5863 17.3865 14.092 17.5382 13.182 17.5798C12.1981 17.6245 11.9025 17.6342 9.4105 17.6342C6.91828 17.6342 6.62292 17.6245 5.63902 17.5798C4.72901 17.5378 4.23511 17.3857 3.90592 17.258C3.47036 17.0888 3.15924 16.8866 2.83257 16.5599C2.5059 16.2332 2.30368 15.9229 2.13412 15.4872C2.00637 15.1585 1.85412 14.6646 1.8127 13.7546C1.76798 12.7707 1.75903 12.4752 1.75903 9.98277C1.75903 7.49035 1.76798 7.19635 1.8127 6.21245C1.85431 5.30244 2.00637 4.80855 2.13412 4.47954C2.30329 4.04398 2.5059 3.73287 2.83257 3.4062C3.15924 3.07953 3.47036 2.8773 3.90592 2.70775C4.23492 2.57941 4.72901 2.42774 5.63902 2.38594C6.50003 2.34705 6.8337 2.33538 8.57322 2.33344V2.33577ZM14.3926 3.88551C13.7743 3.88551 13.2726 4.3866 13.2726 5.00513C13.2726 5.62347 13.7743 6.12514 14.3926 6.12514C15.0109 6.12514 15.5126 5.62347 15.5126 5.00513C15.5126 4.38679 15.0109 3.88512 14.3926 3.88512V3.88551ZM9.4105 5.19413C6.7635 5.19413 4.6174 7.34024 4.6174 9.98724C4.6174 12.6342 6.7635 14.7794 9.4105 14.7794C12.0575 14.7794 14.2028 12.6342 14.2028 9.98724C14.2028 7.34024 12.0573 5.19413 9.41031 5.19413H9.4105ZM9.4105 6.87609C11.1286 6.87609 12.5216 8.26891 12.5216 9.98724C12.5216 11.7054 11.1286 13.0984 9.4105 13.0984C7.69218 13.0984 6.29936 11.7054 6.29936 9.98724C6.29936 8.26891 7.69218 6.87609 9.4105 6.87609V6.87609Z" fill="white"/>
</svg>
