<svg width="21" height="18" viewBox="0 0 21 18" fill="none" xmlns="http://www.w3.org/2000/svg">
<path d="M0.729248 15.0134C2.81329 15.1307 4.6357 14.6435 6.413 13.3534C4.61766 13.0467 3.37265 12.2257 2.69601 10.5296C3.21928 10.4574 3.67939 10.5927 4.2207 10.3762C2.45242 9.60034 1.30665 8.43653 1.26154 6.42466C1.82089 6.46977 2.24492 6.83967 2.91254 6.78553C1.28861 5.19769 0.792401 3.4655 1.81187 1.36342C3.50797 3.31213 5.49278 4.63834 7.91965 5.26085C8.05498 5.29693 8.18127 5.33302 8.3166 5.36009C8.93911 5.50444 9.6789 5.81118 10.0578 5.76607C10.7074 5.68487 10.0578 4.93606 10.2202 3.9617C10.7345 0.93037 14.0725 -0.449969 16.5445 1.32733C17.2663 1.8506 17.8346 1.84157 18.5474 1.52581C18.9172 1.36342 19.2962 1.20102 19.7382 1.01157C19.639 1.87766 18.9714 2.35582 18.4391 2.99637C19.0436 3.1317 19.5307 2.96028 20.0901 2.77984C19.9006 3.40235 19.4315 3.7542 19.0075 4.09703C18.5654 4.44888 18.394 4.81878 18.3759 5.39617C18.1053 14.1383 8.17226 20.8957 1.37883 15.5187C0.720233 14.9954 1.36078 15.5187 0.729248 15.0134Z" fill="white"/>
</svg>
