<svg xmlns="http://www.w3.org/2000/svg" width="197" height="51" fill="none" viewBox="0 0 197 51"><path fill="#fff" fill-rule="evenodd" d="M191.9 1.77746L3.21723 1.77747C2.79983 1.77747 2.35923 1.99776 1.89545 2.43836C1.40847 2.87896 1.06063 3.35434 0.851929 3.8645L1.89534 5.51255H2.66058C2.8461 4.56179 3.64613 4.08641 5.06068 4.08641L193.743 4.08641C194.161 4.08641 194.613 3.86612 195.1 3.42552C195.564 2.98492 195.9 2.50954 196.109 1.99938L195.065 0.351318L194.3 0.351318C194.115 1.30208 193.314 1.77746 191.9 1.77746ZM191.9 47.0886L3.21723 47.0886C2.79983 47.0886 2.35923 47.3089 1.89545 47.7495C1.40847 48.1901 1.06063 48.6654 0.851929 49.1756L1.89534 50.8236H2.66058C2.8461 49.8729 3.64613 49.3975 5.06068 49.3975L193.743 49.3975C194.161 49.3975 194.613 49.1772 195.1 48.7366C195.564 48.296 195.9 47.8206 196.109 47.3105L195.065 45.6624H194.3C194.115 46.6132 193.314 47.0886 191.9 47.0886Z" clip-rule="evenodd"/></svg>