<svg xmlns="http://www.w3.org/2000/svg" width="212" height="55" fill="none" viewBox="0 0 212 55"><path fill="#fff" fill-rule="evenodd" d="M206.846 1.53835L3.31812 1.53835C2.86788 1.53835 2.39262 1.77598 1.89234 2.25124C1.36705 2.7265 0.991847 3.23929 0.766724 3.78959L1.89223 5.5673H2.71768C2.91779 4.54174 3.78077 4.02896 5.3066 4.02896L208.834 4.02896C209.285 4.02896 209.772 3.79133 210.298 3.31607C210.798 2.84081 211.161 2.32803 211.386 1.77773L210.26 0L209.435 3.60815e-08C209.235 1.02556 208.372 1.53834 206.846 1.53835ZM206.846 50.4143L3.31812 50.4143C2.86788 50.4143 2.39262 50.652 1.89234 51.1272C1.36705 51.6025 0.991847 52.1153 0.766724 52.6656L1.89223 54.4433H2.71768C2.91779 53.4177 3.78077 52.9049 5.3066 52.9049H208.834C209.285 52.9049 209.772 52.6673 210.298 52.192C210.798 51.7168 211.161 51.204 211.386 50.6537L210.26 48.876H209.435C209.235 49.9015 208.372 50.4143 206.846 50.4143Z" clip-rule="evenodd"/></svg>